<?xml version="1.0" encoding="utf-8"?>


<!-- The icon can be used freely in both personal and commercial projects with no attribution required, but always appreciated. 
You may NOT sub-license, resell, rent, redistribute or otherwise transfer the icon without express written permission from iconmonstr.com -->


<!DOCTYPE svg PUBLIC "-//W3C//DTD SVG 1.1//EN" "http://www.w3.org/Graphics/SVG/1.1/DTD/svg11.dtd">

<svg version="1.1" xmlns="http://www.w3.org/2000/svg" xmlns:xlink="http://www.w3.org/1999/xlink" x="0px" y="0px"

	 width="512px" height="512px" viewBox="0 0 512 512" enable-background="new 0 0 512 512" xml:space="preserve">

<path id="bar_chart_6_icon" d="M367.625,97.795l33.424,33.424l-17.061,16.654l-33.557-33.556L367.625,97.795z

	 M336.01,128.18l-17.703,17.013l33.803,33.802l17.566-17.148L336.01,128.18z M62.344,462h107.084V358.065H62.344V462z

	 M363.092,64.978l70.203,70.203L449.656,50L363.092,64.978z M339.504,462h108.133V241.533H339.504V462z M337.795,192.966

	l-33.91-33.911l-54.37,52.253l-47.869-45.256L67.632,299.57l32.968,32.423l99.658-99.653l49.362,46.704L337.795,192.966z

	 M200.923,462h108.136V308.723H200.923V462z"/>

</svg>

